<?xml version="1.0" encoding="UTF-8" standalone="no"?>
<svg width="16px" height="13px" viewBox="0 0 16 13" version="1.1" xmlns="http://www.w3.org/2000/svg" xmlns:xlink="http://www.w3.org/1999/xlink">
    <!-- Generator: Sketch 40.1 (33804) - http://www.bohemiancoding.com/sketch -->
    <title>Group 5</title>
    <desc>Created with Sketch.</desc>
    <defs></defs>
    <g id="Page-6" stroke="none" stroke-width="1" fill="none" fill-rule="evenodd">
        <g id="La-biblioteca-virtual" transform="translate(-137.000000, -264.000000)" fill="#0187E0">
            <g id="Group-5" transform="translate(137.000000, 264.000000)">
                <g id="noun_460367_cc">
                    <g id="Group">
                        <g id="Shape">
                            <g transform="translate(10.172800, 0.421458)">
                                <path d="M2.93805533,11.536705 C6.15789958,8.39362994 6.15789958,3.28908707 2.93805533,0.146012055 L2.59912436,0.476862056 C5.62529376,3.43087992 5.62529376,8.25183708 2.59912436,11.205855 L2.93805533,11.536705 Z"></path>
                                <path d="M1.35254551,9.57523709 L1.69147649,9.90608709 C3.99136523,7.66103351 3.99136523,4.0216835 1.69147649,1.77662992 L1.35254551,2.10747992 C3.48296877,4.16347635 3.48296877,7.51924065 1.35254551,9.57523709 L1.35254551,9.57523709 Z"></path>
                                <path d="M0.444897638,8.27546923 C1.82483088,6.92843708 1.82483088,4.75427993 0.444897638,3.40724778 L0.105966665,3.73809778 C1.31643443,4.89607279 1.31643443,6.78664422 0.105966665,7.94461922 L0.444897638,8.27546923 Z"></path>
                            </g>
                            <path d="M0.932506654,4.06707286 C0.466253327,4.06707286 0.0847733322,4.44638536 0.0847733322,4.90998952 L0.0847733322,7.7126874 C0.0847733322,8.17629156 0.466253327,8.55560405 0.932506654,8.55560405 L1.29279332,8.55560405 C1.48353331,8.55560405 2.94587329,8.6188228 3.09422663,8.7452603 L7.54482657,12.3065832 C8.09585323,12.7491144 8.94358655,12.348729 8.94358655,11.6533228 L8.92239322,0.969354154 C8.92239322,0.252874997 8.09585323,-0.147510415 7.52363323,0.316093746 L3.09422663,3.87741662 C2.94587329,4.00385411 1.48353331,4.06707286 1.29279332,4.06707286 L0.932506654,4.06707286 Z"></path>
                        </g>
                    </g>
                </g>
            </g>
        </g>
    </g>
</svg>